# xmcd
#
# Track frame offsets:
#  150
#  13507
#  26837
#
# Disc length: 544 seconds
#
# Revision: 0
# Processed by: cddbd v1.5.1PL2 Copyright (c) Steve Scherf et al.
# Submitted via: Collectorz.com_Music_Collector 6.9
#
DISCID=1a021e03
DTITLE=De Raggende Manne - Ik Doe 't Allemaal Voor Jou
DYEAR=1900
DGENRE=Dutch
TTITLE0=Ik Doe 't Allemaal Voor Jou
TTITLE1=Ik Doe 't Allemaal Voor Jou (Karaoke-Versie)
TTITLE2=Vrijheid (Bonus)
EXTD=
EXTT0=
EXTT1=
EXTT2=
PLAYORDER=
